<svg version="1.1" xmlns="http://www.w3.org/2000/svg" viewBox="0 0 148.66528658398238 126.66304426851138" width="297.33057316796476" height="253.32608853702277"><!-- svg-source:excalidraw --><metadata></metadata><defs><style class="style-fonts">
      </style></defs><g transform="translate(103.54815592944942 43.45787144786618) rotate(0 15.25478139511688 0.5607286982979076)" stroke="none"><path fill="#2f9e44" d="M -3.79,-7.69 Q -3.79,-7.69 -1.47,-8.89 0.84,-10.10 4.72,-11.98 8.61,-13.86 13.12,-15.09 17.63,-16.31 23.87,-15.37 30.12,-14.43 33.61,-11.91 37.11,-9.38 39.60,-5.47 42.10,-1.55 42.66,0.97 43.21,3.51 43.24,5.60 43.27,7.69 42.63,9.68 41.98,11.67 40.74,13.35 39.50,15.03 37.78,16.22 36.06,17.42 34.06,18.00 32.05,18.59 29.96,18.50 27.87,18.41 25.92,17.66 23.97,16.91 22.36,15.58 20.75,14.25 19.65,12.47 18.55,10.69 18.07,8.66 17.60,6.62 17.80,4.54 18.00,2.46 18.85,0.55 19.70,-1.35 21.12,-2.88 22.54,-4.42 24.38,-5.42 26.21,-6.43 28.27,-6.79 30.33,-7.15 32.40,-6.84 34.46,-6.53 36.32,-5.57 38.18,-4.62 39.64,-3.12 41.09,-1.62 42.00,0.26 42.90,2.15 43.15,4.22 43.40,6.30 42.98,8.34 42.55,10.39 41.50,12.20 40.44,14.00 38.87,15.37 37.29,16.75 35.36,17.54 33.43,18.34 31.34,18.48 29.25,18.62 27.23,18.09 25.21,17.55 23.47,16.40 21.72,15.25 20.44,13.60 19.15,11.95 18.46,9.98 17.77,8.01 17.77,8.01 17.77,8.01 17.34,6.20 16.92,4.39 21.30,6.62 25.68,8.86 21.35,7.70 17.03,6.54 12.89,7.61 8.76,8.68 6.27,9.50 3.79,10.32 2.66,10.65 1.53,10.97 0.35,11.01 -0.82,11.06 -1.97,10.82 -3.13,10.57 -4.19,10.07 -5.25,9.56 -6.17,8.81 -7.08,8.06 -7.78,7.11 -8.48,6.17 -8.94,5.08 -9.40,3.99 -9.58,2.83 -9.77,1.67 -9.67,0.49 -9.57,-0.67 -9.19,-1.79 -8.81,-2.91 -8.18,-3.90 -7.55,-4.90 -6.69,-5.71 -5.84,-6.52 -4.82,-7.11 -3.79,-7.69 -3.79,-7.69 L -3.79,-7.69 Z"></path></g><g transform="translate(35.96151057189127 87.43144801761946) rotate(0 37.560452271605755 -25.16185637612375)" stroke="none"><path fill="#2f9e44" d="M 5.90,8.26 Q 5.90,8.26 3.07,10.50 0.23,12.73 -3.00,16.50 -6.25,20.26 -10.08,23.33 -13.91,26.40 -14.48,27.85 -15.05,29.30 -16.36,29.99 -17.67,30.69 -19.10,31.05 -20.54,31.41 -22.02,31.42 -23.50,31.43 -24.93,31.09 -26.37,30.74 -27.69,30.06 -29.00,29.38 -30.12,28.41 -31.23,27.43 -32.08,26.22 -32.93,25.01 -33.46,23.63 -33.99,22.24 -34.18,20.78 -34.37,19.31 -34.20,17.84 -34.03,16.37 -33.51,14.98 -33.00,13.59 -32.16,12.37 -31.33,11.15 -30.23,10.16 -29.13,9.17 -23.79,8.72 -18.45,8.26 -16.07,4.40 -13.69,0.55 -9.18,-3.17 -4.68,-6.89 -7.40,-3.49 -10.11,-0.08 -6.14,5.92 -2.17,11.93 -3.19,16.54 -4.20,21.15 -9.55,22.89 -14.90,24.63 -19.91,21.39 -24.92,18.15 -27.08,14.38 -29.23,10.62 -27.69,2.59 -26.16,-5.42 -27.43,-9.52 -28.70,-13.61 -29.24,-18.15 -29.78,-22.69 -29.83,-27.29 -29.88,-31.90 -29.91,-36.68 -29.95,-41.46 -29.98,-45.97 -30.02,-50.48 -28.82,-56.97 -27.62,-63.45 -25.29,-67.46 -22.96,-71.46 -18.74,-73.19 -14.51,-74.92 -9.44,-77.04 -4.37,-79.15 -0.23,-80.90 3.91,-82.66 9.23,-84.13 14.54,-85.61 19.50,-86.69 24.46,-87.78 28.77,-88.14 33.08,-88.50 37.36,-88.55 41.63,-88.61 48.89,-87.96 56.15,-87.30 60.01,-85.51 63.86,-83.71 67.22,-79.95 70.59,-76.18 71.57,-71.85 72.56,-67.52 72.58,-63.21 72.61,-58.89 72.62,-54.59 72.63,-50.29 72.98,-45.81 73.33,-41.33 74.40,-36.99 75.47,-32.65 75.52,-28.30 75.56,-23.95 75.57,-19.56 75.58,-15.18 72.20,-7.57 68.82,0.02 64.01,3.08 59.21,6.15 54.53,7.27 49.86,8.40 44.84,8.08 39.83,7.76 35.14,8.30 30.46,8.84 26.06,9.74 21.67,10.65 15.04,9.82 8.42,8.99 2.01,4.31 -4.38,-0.37 -6.66,-6.71 -8.94,-13.04 -9.58,-17.33 -10.21,-21.62 -11.19,-27.73 -12.17,-33.84 -11.90,-38.35 -11.63,-42.85 -9.32,-47.25 -7.00,-51.65 -3.68,-54.79 -0.37,-57.93 3.18,-60.27 6.73,-62.61 11.02,-65.24 15.30,-67.86 21.35,-70.66 27.40,-73.45 32.32,-72.41 37.24,-71.37 40.43,-68.25 43.61,-65.12 44.68,-59.55 45.76,-53.99 45.50,-49.35 45.24,-44.72 44.47,-39.53 43.69,-34.34 42.94,-30.06 42.18,-25.78 38.82,-30.20 35.46,-34.62 39.03,-37.32 42.59,-40.02 48.11,-38.35 53.64,-36.68 57.62,-31.33 61.60,-25.98 64.55,-22.59 67.49,-19.20 68.79,-14.65 70.08,-10.10 68.95,-2.99 67.82,4.11 65.93,9.06 64.04,14.01 61.23,17.62 58.41,21.23 55.54,24.93 52.66,28.63 51.30,30.14 49.94,31.65 48.59,32.96 47.24,34.28 45.61,35.22 43.98,36.17 42.18,36.70 40.37,37.24 38.49,37.32 36.60,37.40 34.76,37.03 32.91,36.66 31.20,35.86 29.50,35.06 28.03,33.88 26.57,32.69 25.43,31.19 24.29,29.69 23.55,27.96 22.80,26.23 22.49,24.37 22.18,22.51 22.33,20.63 22.47,18.75 23.06,16.96 23.65,15.17 24.65,13.58 25.65,11.98 28.25,6.85 30.86,1.72 34.48,-2.98 38.11,-7.69 40.82,-11.53 43.53,-15.36 48.65,-18.20 53.78,-21.04 60.05,-20.36 66.32,-19.68 70.43,-17.04 74.54,-14.40 77.73,-8.79 80.92,-3.18 82.58,1.39 84.23,5.97 84.26,10.53 84.29,15.09 84.29,15.57 84.29,16.05 84.06,17.94 83.83,19.82 83.16,21.59 82.49,23.37 81.41,24.93 80.33,26.49 78.91,27.75 77.49,29.01 75.81,29.89 74.13,30.77 72.29,31.22 70.45,31.68 68.55,31.68 66.65,31.68 64.81,31.22 62.97,30.77 61.29,29.89 59.61,29.01 58.19,27.75 56.77,26.49 55.69,24.93 54.62,23.37 53.94,21.59 53.27,19.82 53.04,17.94 52.81,16.05 52.81,11.58 52.81,7.12 52.81,2.50 52.81,-2.11 55.05,-9.71 57.30,-17.32 56.14,-21.67 54.98,-26.02 55.84,-31.82 56.70,-37.62 60.94,-42.69 65.17,-47.75 69.57,-49.85 73.96,-51.95 78.18,-53.36 82.40,-54.76 89.96,-55.78 97.51,-56.80 101.69,-54.45 105.86,-52.09 108.94,-47.99 112.03,-43.89 111.44,-37.21 110.86,-30.52 108.84,-26.58 106.82,-22.63 102.01,-20.52 97.20,-18.41 89.14,-19.60 81.08,-20.80 77.11,-24.47 73.13,-28.14 72.46,-32.84 71.79,-37.53 74.03,-42.80 76.26,-48.06 79.17,-39.40 82.09,-30.75 85.93,-28.62 89.77,-26.48 94.31,-28.12 98.86,-29.76 93.98,-27.26 89.10,-24.76 92.97,-27.05 96.84,-29.34 93.45,-24.89 90.05,-20.43 93.33,-24.78 96.62,-29.14 93.45,-36.46 90.28,-43.79 85.64,-44.54 80.99,-45.29 76.93,-43.19 72.87,-41.09 77.61,-45.23 82.35,-49.38 86.78,-50.10 91.21,-50.82 93.74,-50.47 96.28,-50.12 98.57,-48.98 100.87,-47.84 102.67,-46.02 104.48,-44.21 105.62,-41.91 106.75,-39.61 107.09,-37.07 107.43,-34.54 106.94,-32.02 106.46,-29.51 105.19,-27.28 103.93,-25.05 102.02,-23.35 100.11,-21.64 97.75,-20.63 95.40,-19.62 92.84,-19.42 90.29,-19.22 87.81,-19.84 85.32,-20.46 83.17,-21.85 81.01,-23.23 79.41,-25.23 77.81,-27.23 76.93,-29.64 76.05,-32.04 75.99,-34.60 75.92,-37.17 76.68,-39.61 77.44,-42.06 78.94,-44.14 80.43,-46.21 82.52,-47.70 84.60,-49.19 87.05,-49.94 89.50,-50.69 92.06,-50.61 94.62,-50.54 97.02,-49.65 99.43,-48.76 101.42,-47.15 103.41,-45.54 104.79,-43.38 106.16,-41.22 106.78,-38.73 107.39,-36.25 107.18,-33.69 106.96,-31.14 105.94,-28.79 104.93,-26.44 103.21,-24.54 101.50,-22.63 99.27,-21.38 97.03,-20.12 94.52,-19.65 92.00,-19.17 92.00,-19.17 92.00,-19.17 93.71,-19.51 95.41,-19.85 88.39,-17.37 81.38,-14.89 76.94,-16.40 72.49,-17.90 70.31,-21.90 68.12,-25.90 67.49,-32.55 66.85,-39.21 69.82,-42.44 72.79,-45.67 70.17,-41.54 67.55,-37.41 68.82,-41.73 70.08,-46.05 75.07,-50.06 80.05,-54.07 84.77,-55.24 89.49,-56.41 94.22,-54.11 98.94,-51.81 100.29,-40.66 101.64,-29.51 101.41,-34.34 101.18,-39.18 94.96,-43.87 88.75,-48.57 86.65,-44.56 84.56,-40.56 84.21,-34.99 83.87,-29.43 89.91,-28.82 95.95,-28.21 89.49,-24.82 83.02,-21.42 84.76,-25.52 86.50,-29.61 86.50,-25.03 86.50,-20.45 86.48,-16.12 86.45,-11.80 85.37,-6.95 84.30,-2.11 84.29,2.50 84.29,7.12 84.29,11.58 84.29,16.05 84.06,17.94 83.83,19.82 83.16,21.59 82.49,23.37 81.41,24.93 80.33,26.49 78.91,27.75 77.49,29.01 75.81,29.89 74.13,30.77 72.29,31.22 70.45,31.68 68.55,31.68 66.66,31.68 64.81,31.22 62.97,30.77 61.29,29.89 59.61,29.01 58.19,27.75 56.77,26.49 55.70,24.93 54.62,23.37 53.95,21.60 53.27,19.82 53.04,17.94 52.81,16.06 53.10,12.46 53.39,8.87 58.68,7.55 63.98,6.24 61.28,10.35 58.59,14.46 56.02,18.04 53.45,21.63 51.70,26.64 49.95,31.65 48.59,32.96 47.24,34.27 45.61,35.22 43.98,36.17 42.18,36.70 40.37,37.24 38.49,37.32 36.60,37.40 34.76,37.03 32.91,36.66 31.20,35.86 29.50,35.06 28.03,33.88 26.57,32.69 25.43,31.19 24.29,29.69 23.55,27.96 22.80,26.23 22.49,24.37 22.18,22.51 22.33,20.63 22.47,18.76 23.06,16.97 23.65,15.18 24.65,13.58 25.65,11.98 25.81,12.50 25.98,13.01 29.40,9.67 32.83,6.32 35.62,3.09 38.42,-0.12 38.11,-4.58 37.80,-9.03 35.26,-12.96 32.72,-16.89 35.99,-13.37 39.26,-9.86 44.98,-11.44 50.69,-13.02 46.18,-10.11 41.67,-7.19 37.29,-6.18 32.92,-5.17 28.11,-5.92 23.29,-6.67 18.69,-10.87 14.08,-15.07 13.07,-22.80 12.05,-30.52 13.16,-35.75 14.27,-40.97 14.83,-47.98 15.39,-54.98 19.11,-50.39 22.84,-45.79 28.86,-45.32 34.88,-44.84 31.21,-42.33 27.55,-39.82 23.54,-35.36 19.53,-30.90 20.76,-24.28 21.99,-17.67 17.58,-17.66 13.17,-17.65 18.50,-19.67 23.83,-21.69 29.90,-22.75 35.96,-23.81 40.29,-23.80 44.61,-23.80 48.92,-23.26 53.23,-22.72 47.44,-20.99 41.65,-19.26 45.80,-22.27 49.94,-25.28 46.98,-20.63 44.02,-15.98 44.03,-20.37 44.04,-24.76 43.65,-29.04 43.26,-33.31 42.20,-40.30 41.14,-47.28 41.14,-51.62 41.15,-55.96 41.29,-60.49 41.43,-65.01 45.17,-61.12 48.91,-57.23 44.30,-57.24 39.69,-57.25 34.89,-57.86 30.10,-58.46 23.72,-56.76 17.34,-55.06 12.94,-53.04 8.55,-51.02 4.17,-49.41 -0.20,-47.81 -4.97,-45.92 -9.74,-44.03 -4.44,-48.00 0.86,-51.96 0.82,-47.58 0.78,-43.20 0.75,-38.73 0.72,-34.26 0.68,-29.62 0.64,-24.98 0.92,-20.63 1.19,-16.29 1.52,-11.02 1.85,-5.74 1.66,-1.06 1.46,3.62 -1.89,8.86 -5.25,14.10 -4.63,9.67 -4.02,5.23 -12.89,1.54 -21.77,-2.15 -18.72,-5.51 -15.66,-8.87 -11.17,-11.38 -6.69,-13.89 -0.49,-14.16 5.70,-14.44 10.66,-10.61 15.61,-6.78 16.42,-1.73 17.23,3.31 15.26,7.51 13.29,11.72 10.26,15.22 7.23,18.72 2.45,21.26 -2.32,23.80 -6.56,26.06 -10.80,28.31 -17.72,29.52 -24.64,30.73 -19.85,30.01 -15.05,29.30 -16.36,29.99 -17.66,30.69 -19.10,31.05 -20.53,31.41 -22.01,31.42 -23.49,31.43 -24.93,31.09 -26.37,30.74 -27.69,30.06 -29.00,29.38 -30.12,28.41 -31.23,27.43 -32.08,26.22 -32.93,25.01 -33.46,23.63 -33.99,22.25 -34.18,20.78 -34.37,19.31 -34.20,17.84 -34.03,16.37 -33.51,14.98 -33.00,13.59 -32.16,12.37 -31.33,11.15 -30.23,10.16 -29.13,9.17 -28.61,8.82 -28.10,8.47 -23.93,5.44 -19.76,2.42 -15.87,-0.96 -11.98,-4.34 -8.94,-6.30 -5.90,-8.26 -4.83,-8.85 -3.75,-9.44 -2.57,-9.75 -1.38,-10.06 -0.16,-10.08 1.06,-10.10 2.25,-9.83 3.44,-9.55 4.54,-9.00 5.63,-8.45 6.56,-7.65 7.49,-6.85 8.20,-5.86 8.91,-4.86 9.37,-3.72 9.82,-2.58 9.99,-1.37 10.15,-0.16 10.03,1.05 9.90,2.27 9.48,3.42 9.07,4.57 8.39,5.59 7.71,6.61 6.80,7.44 5.90,8.26 5.90,8.26 L 5.90,8.26 Z"></path></g><g transform="translate(19.08788269552315 76.96334617754064) rotate(0 0 -24.39379039324706)" stroke="none"><path fill="#f0f0f0" d="M -1.86,0 Q -1.86,0 -1.79,-2.88 -1.71,-5.77 -1.66,-10.57 -1.60,-15.38 -1.56,-19.89 -1.52,-24.41 -1.49,-28.53 -1.46,-32.65 -1.44,-36.05 -1.42,-39.45 -1.41,-42.00 -1.39,-44.54 -1.48,-46.28 -1.58,-48.02 -1.53,-48.27 -1.49,-48.52 -1.37,-48.75 -1.25,-48.97 -1.07,-49.15 -0.88,-49.32 -0.65,-49.43 -0.42,-49.54 -0.16,-49.57 0.08,-49.59 0.33,-49.54 0.58,-49.48 0.80,-49.35 1.02,-49.22 1.18,-49.03 1.35,-48.83 1.44,-48.59 1.54,-48.36 1.55,-48.10 1.57,-47.85 1.50,-47.60 1.43,-47.35 1.29,-47.14 1.14,-46.93 0.94,-46.77 0.74,-46.62 0.49,-46.54 0.25,-46.46 -0.00,-46.46 -0.25,-46.46 -0.49,-46.54 -0.74,-46.62 -0.94,-46.78 -1.14,-46.93 -1.29,-47.14 -1.43,-47.35 -1.50,-47.60 -1.57,-47.85 -1.55,-48.10 -1.54,-48.36 -1.44,-48.59 -1.35,-48.83 -1.18,-49.03 -1.02,-49.22 -0.80,-49.35 -0.58,-49.48 -0.33,-49.54 -0.08,-49.59 0.16,-49.57 0.42,-49.54 0.65,-49.43 0.88,-49.32 1.07,-49.15 1.25,-48.97 1.37,-48.75 1.49,-48.52 1.53,-48.27 1.58,-48.02 1.58,-48.02 1.58,-48.02 1.48,-46.28 1.39,-44.54 1.41,-42.00 1.42,-39.45 1.44,-36.05 1.46,-32.65 1.49,-28.53 1.52,-24.41 1.56,-19.89 1.60,-15.38 1.66,-10.57 1.71,-5.77 1.79,-2.88 1.86,0 1.84,0.22 1.81,0.44 1.73,0.65 1.65,0.86 1.52,1.05 1.39,1.23 1.22,1.38 1.06,1.53 0.86,1.64 0.66,1.74 0.44,1.80 0.22,1.85 -0.00,1.85 -0.22,1.85 -0.44,1.80 -0.66,1.74 -0.86,1.64 -1.06,1.53 -1.22,1.38 -1.39,1.23 -1.52,1.05 -1.65,0.86 -1.73,0.65 -1.81,0.44 -1.84,0.22 -1.86,-0.00 -1.86,-0.00 L -1.86,0 Z"></path></g><g transform="translate(100.87882695522421 67.39715386646412) rotate(0 -0.47830961555337126 -24.39379039324706)" stroke="none"><path fill="#f0f0f0" d="M -1.78,0 Q -1.78,0 -1.76,-1.92 -1.75,-3.85 -1.69,-7.83 -1.63,-11.81 -1.59,-14.60 -1.54,-17.39 -1.51,-22.15 -1.48,-26.92 -1.46,-31.00 -1.43,-35.09 -1.55,-38.31 -1.67,-41.53 -2.07,-44.43 -2.46,-47.33 -2.45,-47.59 -2.43,-47.86 -2.33,-48.10 -2.22,-48.35 -2.05,-48.55 -1.87,-48.75 -1.64,-48.88 -1.42,-49.02 -1.15,-49.07 -0.89,-49.12 -0.63,-49.09 -0.37,-49.06 -0.13,-48.94 0.10,-48.83 0.29,-48.64 0.48,-48.46 0.60,-48.22 0.73,-47.99 0.76,-47.72 0.80,-47.46 0.76,-47.20 0.71,-46.94 0.58,-46.70 0.46,-46.47 0.26,-46.29 0.06,-46.11 -0.17,-46.00 -0.41,-45.89 -0.68,-45.87 -0.94,-45.84 -1.20,-45.90 -1.46,-45.97 -1.68,-46.11 -1.91,-46.25 -2.08,-46.45 -2.25,-46.66 -2.34,-46.90 -2.44,-47.15 -2.45,-47.42 -2.46,-47.68 -2.38,-47.94 -2.31,-48.19 -2.16,-48.41 -2.01,-48.63 -1.79,-48.79 -1.58,-48.95 -1.32,-49.03 -1.07,-49.11 -0.81,-49.10 -0.54,-49.10 -0.29,-49.01 -0.04,-48.92 0.16,-48.76 0.37,-48.60 0.52,-48.37 0.66,-48.15 0.73,-47.89 0.80,-47.64 0.80,-47.64 0.80,-47.64 0.96,-44.64 1.12,-41.65 1.28,-38.37 1.43,-35.09 1.46,-31.00 1.48,-26.92 1.51,-22.15 1.54,-17.39 1.59,-14.60 1.63,-11.81 1.69,-7.83 1.75,-3.85 1.76,-1.92 1.78,0 1.75,0.21 1.73,0.42 1.65,0.62 1.57,0.82 1.45,1.00 1.33,1.18 1.17,1.32 1.01,1.46 0.82,1.56 0.63,1.66 0.42,1.71 0.21,1.77 -0.00,1.77 -0.21,1.77 -0.42,1.71 -0.63,1.66 -0.82,1.56 -1.01,1.46 -1.17,1.32 -1.33,1.18 -1.45,1.00 -1.57,0.82 -1.65,0.62 -1.73,0.42 -1.75,0.21 -1.78,-0.00 -1.78,-0.00 L -1.78,0 Z"></path></g><g transform="translate(99.92220772412111 16.69633461775402) rotate(0 -41.134626937631765 8.609573079969664)" stroke="none"><path fill="#f0f0f0" d="M -0.34,1.57 Q -0.34,1.57 -4.73,0.57 -9.12,-0.42 -14.34,-0.99 -19.56,-1.55 -26.17,-1.80 -32.77,-2.05 -39.71,-2.16 -46.65,-2.28 -52.86,-1.92 -59.06,-1.56 -63.85,-0.73 -68.63,0.08 -71.81,1.23 -75.00,2.37 -76.64,3.59 -78.28,4.81 -78.96,6.28 -79.65,7.75 -79.80,9.46 -79.95,11.17 -79.74,12.78 -79.52,14.40 -78.91,15.56 -78.31,16.72 -77.15,17.58 -75.99,18.45 -74.02,19.27 -72.04,20.09 -67.71,20.75 -63.38,21.40 -58.36,21.71 -53.35,22.01 -47.91,22.16 -42.48,22.30 -36.64,21.95 -30.80,21.61 -25.31,20.92 -19.83,20.24 -15.66,19.01 -11.49,17.78 -8.84,16.34 -6.20,14.91 -4.78,13.32 -3.36,11.74 -2.84,10.10 -2.32,8.47 -2.43,7.09 -2.55,5.71 -2.96,4.12 -3.38,2.53 -3.98,1.58 -4.58,0.64 -5.76,-0.39 -6.94,-1.43 -8.10,-1.52 -9.26,-1.61 -11.16,-1.95 -13.06,-2.28 -15.89,-2.92 -18.72,-3.55 -21.88,-3.98 -25.05,-4.41 -28.02,-4.62 -30.99,-4.83 -33.50,-4.94 -36.00,-5.04 -38.12,-4.97 -40.23,-4.89 -43.00,-4.46 -45.78,-4.04 -48.35,-3.59 -50.93,-3.13 -53.45,-2.54 -55.97,-1.95 -56.23,-1.94 -56.50,-1.94 -56.75,-2.02 -57.00,-2.09 -57.21,-2.25 -57.43,-2.40 -57.58,-2.62 -57.74,-2.83 -57.81,-3.09 -57.89,-3.34 -57.88,-3.60 -57.87,-3.87 -57.78,-4.12 -57.69,-4.36 -57.52,-4.57 -57.36,-4.77 -57.13,-4.92 -56.91,-5.06 -56.65,-5.12 -56.40,-5.18 -56.13,-5.16 -55.87,-5.14 -55.63,-5.03 -55.39,-4.93 -55.19,-4.75 -54.99,-4.57 -54.86,-4.34 -54.73,-4.11 -54.69,-3.85 -54.64,-3.59 -54.67,-3.33 -54.71,-3.07 -54.83,-2.83 -54.95,-2.60 -55.13,-2.41 -55.32,-2.23 -55.56,-2.11 -55.80,-1.99 -56.06,-1.96 -56.32,-1.92 -56.58,-1.97 -56.84,-2.02 -57.07,-2.15 -57.30,-2.28 -57.47,-2.48 -57.65,-2.68 -57.75,-2.92 -57.86,-3.17 -57.88,-3.43 -57.90,-3.69 -57.83,-3.95 -57.77,-4.21 -57.63,-4.43 -57.48,-4.65 -57.28,-4.82 -57.07,-4.98 -56.82,-5.07 -56.57,-5.16 -56.57,-5.16 -56.57,-5.16 -54.00,-5.53 -51.43,-5.90 -48.83,-6.39 -46.24,-6.88 -43.31,-7.37 -40.38,-7.86 -38.15,-8.00 -35.92,-8.15 -33.38,-8.13 -30.83,-8.11 -27.75,-8.01 -24.66,-7.92 -21.34,-7.63 -18.01,-7.35 -15.28,-6.95 -12.54,-6.56 -10.42,-6.41 -8.29,-6.26 -6.85,-5.88 -5.41,-5.49 -4.08,-4.26 -2.76,-3.03 -2.04,-2.02 -1.33,-1.01 -0.76,0.38 -0.19,1.78 0.20,3.75 0.60,5.72 0.46,7.55 0.32,9.39 -0.51,11.43 -1.35,13.48 -3.11,15.37 -4.88,17.25 -7.79,18.82 -10.71,20.38 -15.09,21.68 -19.47,22.97 -25.05,23.69 -30.63,24.41 -36.58,24.79 -42.54,25.17 -48.02,25.07 -53.51,24.98 -58.67,24.72 -63.82,24.47 -68.54,23.80 -73.25,23.13 -75.74,22.14 -78.22,21.15 -79.79,19.68 -81.36,18.21 -82.00,16.47 -82.64,14.74 -82.76,12.78 -82.88,10.81 -82.53,8.63 -82.19,6.45 -81.06,4.59 -79.93,2.73 -77.93,1.29 -75.94,-0.13 -72.52,-1.36 -69.10,-2.58 -64.16,-3.44 -59.23,-4.31 -52.92,-4.69 -46.61,-5.07 -39.64,-4.99 -32.67,-4.91 -25.97,-4.69 -19.26,-4.48 -13.87,-3.95 -8.47,-3.42 -4.06,-2.50 0.34,-1.57 0.52,-1.51 0.71,-1.44 0.87,-1.34 1.03,-1.23 1.17,-1.09 1.30,-0.95 1.39,-0.78 1.49,-0.61 1.54,-0.42 1.59,-0.23 1.60,-0.04 1.60,0.15 1.56,0.34 1.52,0.53 1.43,0.70 1.35,0.88 1.22,1.03 1.10,1.18 0.94,1.29 0.78,1.41 0.60,1.48 0.42,1.55 0.23,1.58 0.04,1.61 -0.15,1.59 -0.34,1.57 -0.34,1.57 L -0.34,1.57 Z"></path></g><g transform="translate(21.001121157729358 81.26813271752462) rotate(0 43.04786539984889 2.8698576933230697)" stroke="none"><path fill="#f0f0f0" d="M 0.63,-1.42 Q 0.63,-1.42 4.61,0.39 8.58,2.21 11.29,3.10 14.00,3.99 17.62,4.93 21.23,5.86 25.34,6.53 29.45,7.20 33.52,7.63 37.58,8.06 41.61,8.10 45.63,8.15 49.35,7.76 53.07,7.38 56.32,6.94 59.56,6.50 62.24,5.78 64.92,5.07 67.82,3.95 70.71,2.83 72.49,2.05 74.27,1.27 76.20,0.17 78.14,-0.92 79.64,-1.88 81.14,-2.83 82.97,-4.09 84.79,-5.36 85.02,-5.47 85.26,-5.59 85.52,-5.62 85.78,-5.65 86.03,-5.60 86.29,-5.55 86.52,-5.42 86.74,-5.29 86.92,-5.09 87.09,-4.90 87.19,-4.66 87.29,-4.41 87.31,-4.15 87.33,-3.89 87.27,-3.64 87.20,-3.39 87.06,-3.17 86.91,-2.95 86.71,-2.78 86.50,-2.62 86.26,-2.53 86.01,-2.45 85.75,-2.44 85.49,-2.44 85.24,-2.52 84.99,-2.59 84.78,-2.75 84.57,-2.90 84.41,-3.12 84.26,-3.33 84.19,-3.58 84.11,-3.83 84.12,-4.09 84.13,-4.36 84.23,-4.60 84.32,-4.85 84.48,-5.05 84.65,-5.25 84.87,-5.39 85.09,-5.53 85.35,-5.59 85.60,-5.65 85.86,-5.63 86.12,-5.60 86.36,-5.50 86.60,-5.39 86.80,-5.22 86.99,-5.04 87.12,-4.81 87.24,-4.58 87.29,-4.33 87.34,-4.07 87.30,-3.81 87.26,-3.55 87.14,-3.32 87.03,-3.08 86.84,-2.90 86.65,-2.72 86.65,-2.72 86.65,-2.72 84.65,-1.48 82.66,-0.24 81.08,0.60 79.50,1.45 77.42,2.64 75.35,3.84 73.51,4.57 71.66,5.31 68.64,6.47 65.61,7.63 62.77,8.39 59.92,9.14 56.64,9.59 53.35,10.04 49.48,10.45 45.60,10.85 41.45,10.81 37.31,10.77 33.16,10.35 29.01,9.93 24.77,9.26 20.54,8.59 16.83,7.67 13.12,6.74 10.24,5.84 7.36,4.93 3.36,3.18 -0.63,1.42 -0.80,1.32 -0.96,1.23 -1.09,1.09 -1.22,0.96 -1.32,0.80 -1.42,0.64 -1.47,0.46 -1.53,0.28 -1.54,0.09 -1.55,-0.09 -1.52,-0.27 -1.49,-0.46 -1.41,-0.63 -1.33,-0.80 -1.22,-0.95 -1.10,-1.10 -0.95,-1.21 -0.81,-1.33 -0.63,-1.41 -0.46,-1.49 -0.28,-1.52 -0.09,-1.55 0.09,-1.54 0.27,-1.53 0.45,-1.48 0.63,-1.42 0.63,-1.42 L 0.63,-1.42 Z"></path></g><g transform="translate(34.39379039324558 85.09460964195705) rotate(0 -5.978870194421688 10.761966349961881)" stroke="none"><path fill="#f0f0f0" d="M 0,2.01 Q 0,2.01 -1.77,1.99 -3.55,1.98 -4.72,2.39 -5.90,2.80 -7.91,3.65 -9.92,4.50 -11.55,5.61 -13.17,6.71 -14.51,7.98 -15.86,9.25 -16.92,10.78 -17.99,12.31 -18.84,13.72 -19.68,15.13 -20.23,16.47 -20.78,17.80 -21.29,18.91 -21.80,20.02 -20.22,19.86 -18.64,19.70 -16.19,19.44 -13.74,19.17 -10.68,18.30 -7.63,17.43 -4.53,16.27 -1.43,15.11 1.20,13.70 3.83,12.30 5.58,10.94 7.33,9.59 8.21,8.26 9.10,6.93 9.89,4.55 10.68,2.16 10.87,1.92 11.05,1.69 11.31,1.52 11.56,1.35 11.85,1.28 12.15,1.20 12.45,1.22 12.75,1.24 13.03,1.36 13.31,1.47 13.54,1.67 13.77,1.87 13.92,2.13 14.07,2.39 14.13,2.69 14.19,2.99 14.16,3.29 14.12,3.59 13.99,3.86 13.86,4.13 13.65,4.35 13.43,4.57 13.17,4.71 12.90,4.84 12.60,4.89 12.30,4.93 12.00,4.88 11.70,4.83 11.44,4.68 11.17,4.54 10.96,4.31 10.76,4.09 10.64,3.81 10.51,3.54 10.48,3.24 10.46,2.93 10.53,2.64 10.59,2.35 10.75,2.09 10.91,1.83 11.15,1.64 11.38,1.45 11.66,1.34 11.95,1.23 12.25,1.22 12.55,1.20 12.84,1.29 13.13,1.37 13.38,1.55 13.63,1.72 13.81,1.97 13.99,2.21 14.08,2.50 14.17,2.79 14.17,3.09 14.17,3.39 14.06,3.68 13.96,3.96 13.96,3.96 13.96,3.96 13.44,5.43 12.91,6.91 12.30,7.86 11.68,8.81 10.46,10.37 9.23,11.93 7.30,13.50 5.37,15.06 2.59,16.65 -0.18,18.23 -3.36,19.56 -6.54,20.90 -9.83,22.01 -13.13,23.13 -15.92,23.66 -18.71,24.19 -20.78,24.26 -22.86,24.32 -24.08,23.83 -25.30,23.35 -25.86,22.28 -26.41,21.20 -25.88,19.65 -25.34,18.10 -24.73,17.18 -24.13,16.25 -23.36,14.75 -22.60,13.25 -21.64,11.86 -20.68,10.46 -19.43,8.64 -18.19,6.82 -16.69,5.38 -15.19,3.93 -13.35,2.54 -11.52,1.14 -9.28,-0.00 -7.03,-1.15 -5.31,-1.57 -3.59,-1.98 -1.79,-1.99 0,-2.01 0.24,-1.98 0.48,-1.95 0.70,-1.86 0.93,-1.78 1.13,-1.64 1.33,-1.50 1.49,-1.32 1.65,-1.14 1.77,-0.92 1.88,-0.71 1.94,-0.47 1.99,-0.24 1.99,0.00 1.99,0.24 1.94,0.47 1.88,0.71 1.77,0.92 1.65,1.14 1.49,1.32 1.33,1.50 1.13,1.64 0.93,1.78 0.70,1.86 0.48,1.95 0.24,1.98 -0.00,2.01 -0.00,2.01 L 0,2.01 Z"></path></g><g transform="translate(79.83320387085405 89.39939618194103) rotate(0 -5.500560578868317 13.392669235508265)" stroke="none"><path fill="#f0f0f0" d="M 1.90,1.14 Q 1.90,1.14 1.07,2.51 0.25,3.89 -0.86,5.54 -1.97,7.19 -3.42,9.85 -4.87,12.51 -5.77,14.68 -6.67,16.85 -7.29,18.31 -7.90,19.77 -8.20,21.07 -8.51,22.37 -8.74,24.51 -8.97,26.65 -9.04,26.97 -9.12,27.29 -9.29,27.56 -9.46,27.84 -9.72,28.04 -9.97,28.25 -10.27,28.37 -10.58,28.48 -10.90,28.49 -11.23,28.50 -11.54,28.41 -11.86,28.32 -12.12,28.13 -12.39,27.94 -12.58,27.68 -12.77,27.42 -12.87,27.11 -12.97,26.80 -12.96,26.47 -12.96,26.14 -12.85,25.84 -12.74,25.53 -12.54,25.27 -12.34,25.02 -12.06,24.84 -11.79,24.66 -11.47,24.58 -11.16,24.50 -10.83,24.52 -10.51,24.55 -10.21,24.67 -9.91,24.80 -9.66,25.01 -9.42,25.23 -9.25,25.51 -9.09,25.79 -9.03,26.11 -8.96,26.43 -9.00,26.76 -9.04,27.08 -9.19,27.37 -9.33,27.67 -9.56,27.90 -9.79,28.13 -10.08,28.28 -10.37,28.43 -10.69,28.47 -11.01,28.52 -11.33,28.46 -11.65,28.40 -11.94,28.25 -12.22,28.09 -12.44,27.85 -12.66,27.61 -12.80,27.31 -12.93,27.01 -12.96,26.68 -12.99,26.36 -12.99,26.36 -12.99,26.36 -12.62,23.82 -12.26,21.28 -11.75,19.75 -11.23,18.22 -10.55,16.92 -9.87,15.62 -9.03,13.23 -8.19,10.83 -6.83,7.93 -5.47,5.04 -4.51,3.32 -3.55,1.60 -2.72,0.23 -1.90,-1.14 -1.73,-1.35 -1.57,-1.56 -1.36,-1.73 -1.15,-1.89 -0.91,-2.00 -0.66,-2.11 -0.40,-2.16 -0.14,-2.21 0.12,-2.20 0.39,-2.18 0.64,-2.10 0.90,-2.02 1.13,-1.89 1.36,-1.75 1.55,-1.56 1.74,-1.37 1.88,-1.14 2.02,-0.91 2.10,-0.66 2.18,-0.40 2.20,-0.14 2.21,0.12 2.16,0.39 2.12,0.65 2.01,0.89 1.90,1.14 1.90,1.14 L 1.90,1.14 Z"></path></g><g transform="translate(99.92220772412111 82.22475194863318) rotate(0 -15.066752889946656 17.2191461599391)" stroke="none"><path fill="#f0f0f0" d="M 1.63,0.20 Q 1.63,0.20 1.31,2.39 0.99,4.59 0.42,7.36 -0.14,10.13 -1.11,12.64 -2.08,15.14 -3.34,17.60 -4.60,20.06 -6.31,22.16 -8.02,24.25 -10.06,25.88 -12.09,27.50 -14.26,28.63 -16.43,29.76 -18.56,30.76 -20.69,31.77 -22.26,32.55 -23.83,33.32 -24.82,33.97 -25.81,34.62 -27.69,35.39 -29.58,36.15 -29.87,36.15 -30.15,36.15 -30.43,36.05 -30.70,35.96 -30.93,35.78 -31.16,35.61 -31.32,35.37 -31.48,35.13 -31.55,34.85 -31.63,34.57 -31.61,34.28 -31.59,33.99 -31.48,33.73 -31.37,33.46 -31.18,33.24 -30.99,33.02 -30.75,32.87 -30.50,32.73 -30.22,32.67 -29.93,32.61 -29.65,32.64 -29.36,32.68 -29.10,32.80 -28.84,32.92 -28.63,33.12 -28.42,33.32 -28.29,33.58 -28.16,33.83 -28.11,34.12 -28.07,34.40 -28.12,34.69 -28.17,34.97 -28.30,35.23 -28.44,35.48 -28.65,35.68 -28.86,35.87 -29.13,35.99 -29.39,36.11 -29.68,36.14 -29.96,36.17 -30.24,36.11 -30.52,36.04 -30.77,35.89 -31.02,35.74 -31.20,35.52 -31.39,35.30 -31.49,35.03 -31.60,34.76 -31.61,34.47 -31.62,34.18 -31.54,33.91 -31.46,33.63 -31.30,33.39 -31.14,33.15 -30.90,32.98 -30.67,32.81 -30.40,32.72 -30.12,32.63 -30.13,32.63 -30.13,32.63 -28.77,32.11 -27.41,31.59 -26.22,31.10 -25.04,30.60 -23.44,29.98 -21.84,29.35 -19.75,28.36 -17.66,27.36 -15.72,26.36 -13.78,25.36 -11.96,23.93 -10.15,22.50 -8.63,20.64 -7.11,18.77 -5.94,16.45 -4.78,14.12 -3.92,11.83 -3.07,9.55 -2.58,6.88 -2.09,4.20 -1.86,2.00 -1.63,-0.20 -1.58,-0.39 -1.53,-0.58 -1.44,-0.76 -1.35,-0.93 -1.21,-1.08 -1.08,-1.23 -0.92,-1.34 -0.75,-1.46 -0.57,-1.52 -0.38,-1.59 -0.19,-1.62 0.00,-1.64 0.20,-1.62 0.39,-1.59 0.58,-1.52 0.77,-1.45 0.93,-1.34 1.09,-1.22 1.22,-1.07 1.35,-0.93 1.44,-0.75 1.54,-0.57 1.58,-0.38 1.63,-0.19 1.63,0.00 1.63,0.20 1.63,0.20 L 1.63,0.20 Z"></path></g><g transform="translate(100.87882695522421 54.96110386206374) rotate(0 18.893229814379083 -9.566192311077316)" stroke="none"><path fill="#f0f0f0" d="M -1.66,-1.06 Q -1.66,-1.06 -0.69,-2.56 0.27,-4.07 1.43,-5.50 2.60,-6.93 3.94,-8.44 5.28,-9.94 7.07,-11.45 8.85,-12.96 10.41,-14.27 11.96,-15.57 14.09,-16.97 16.21,-18.37 17.97,-19.31 19.74,-20.24 21.12,-20.75 22.50,-21.26 23.85,-21.53 25.20,-21.80 26.87,-21.77 28.53,-21.75 30.13,-21.30 31.73,-20.85 32.85,-20.40 33.97,-19.94 35.69,-18.32 37.40,-16.69 38.27,-14.85 39.15,-13.00 39.52,-11.57 39.90,-10.14 40.18,-8.06 40.47,-5.97 40.57,-4.63 40.67,-3.29 40.32,-0.55 39.96,2.19 39.67,2.56 39.38,2.94 38.99,3.20 38.59,3.46 38.13,3.58 37.68,3.71 37.20,3.68 36.73,3.65 36.29,3.47 35.85,3.29 35.50,2.98 35.14,2.67 34.90,2.26 34.66,1.85 34.56,1.38 34.46,0.92 34.52,0.45 34.58,-0.01 34.78,-0.44 34.98,-0.87 35.31,-1.21 35.64,-1.55 36.06,-1.76 36.48,-1.98 36.95,-2.05 37.42,-2.13 37.89,-2.04 38.35,-1.96 38.77,-1.74 39.19,-1.51 39.51,-1.16 39.83,-0.82 40.02,-0.38 40.22,0.04 40.27,0.51 40.31,0.98 40.20,1.44 40.10,1.90 39.85,2.31 39.60,2.71 39.24,3.01 38.87,3.32 38.43,3.49 37.99,3.66 37.52,3.68 37.04,3.70 36.59,3.57 36.13,3.44 35.74,3.17 35.35,2.90 35.07,2.52 34.79,2.14 34.64,1.69 34.50,1.24 34.50,0.76 34.51,0.29 34.66,-0.15 34.82,-0.60 34.82,-0.60 34.82,-0.60 34.84,-1.89 34.86,-3.19 34.89,-4.43 34.93,-5.67 34.83,-7.26 34.74,-8.85 34.12,-10.90 33.50,-12.95 33.22,-14.01 32.95,-15.06 31.66,-15.93 30.37,-16.80 29.33,-17.24 28.29,-17.67 26.99,-17.79 25.69,-17.91 24.59,-17.86 23.49,-17.82 22.34,-17.60 21.19,-17.38 19.58,-16.58 17.97,-15.79 16.05,-14.42 14.13,-13.06 12.63,-11.73 11.13,-10.41 9.62,-8.97 8.11,-7.54 6.87,-5.98 5.63,-4.43 4.60,-3.20 3.57,-1.97 2.62,-0.45 1.66,1.06 1.51,1.24 1.36,1.42 1.17,1.57 0.98,1.71 0.76,1.80 0.54,1.89 0.30,1.93 0.07,1.97 -0.16,1.95 -0.40,1.93 -0.62,1.85 -0.85,1.78 -1.05,1.65 -1.25,1.52 -1.41,1.35 -1.58,1.18 -1.70,0.97 -1.81,0.76 -1.88,0.54 -1.95,0.31 -1.95,0.07 -1.96,-0.16 -1.92,-0.39 -1.87,-0.63 -1.76,-0.84 -1.66,-1.06 -1.66,-1.06 L -1.66,-1.06 Z"></path></g><g transform="translate(140.62622434469085 59.6146697463696) rotate(0 -18.708333585438595 8.935563042438737)" stroke="none"><path fill="#f0f0f0" d="M -3.18,2.25 Q -3.18,2.25 -4.63,2.50 -6.08,2.74 -8.86,3.17 -11.64,3.60 -13.63,3.81 -15.63,4.01 -17.80,4.48 -19.97,4.94 -21.34,5.27 -22.71,5.60 -23.85,6.46 -25.00,7.31 -25.44,8.81 -25.88,10.31 -26.44,12.35 -27.01,14.39 -27.79,16.33 -28.57,18.26 -30.64,19.44 -32.72,20.62 -33.19,20.64 -33.67,20.67 -34.12,20.55 -34.58,20.42 -34.98,20.16 -35.37,19.89 -35.66,19.52 -35.95,19.14 -36.10,18.69 -36.26,18.24 -36.26,17.77 -36.26,17.29 -36.11,16.84 -35.96,16.39 -35.68,16.01 -35.39,15.63 -35.00,15.36 -34.61,15.10 -34.15,14.97 -33.69,14.84 -33.22,14.86 -32.75,14.88 -32.30,15.06 -31.86,15.23 -31.50,15.54 -31.14,15.84 -30.89,16.25 -30.64,16.65 -30.54,17.12 -30.43,17.58 -30.48,18.05 -30.53,18.52 -30.73,18.96 -30.93,19.39 -31.25,19.73 -31.58,20.08 -31.99,20.30 -32.41,20.53 -32.88,20.61 -33.35,20.69 -33.82,20.61 -34.29,20.54 -34.71,20.32 -35.13,20.10 -35.46,19.75 -35.78,19.41 -35.99,18.98 -36.19,18.55 -36.24,18.08 -36.29,17.61 -36.19,17.14 -36.09,16.68 -35.85,16.27 -35.61,15.86 -35.25,15.56 -34.89,15.25 -34.45,15.07 -34.01,14.89 -34.01,14.89 -34.01,14.89 -33.22,14.31 -32.43,13.72 -31.77,12.33 -31.11,10.94 -30.40,8.84 -29.69,6.74 -28.77,5.30 -27.86,3.87 -26.76,3.14 -25.66,2.42 -24.54,2.11 -23.41,1.80 -22.13,1.64 -20.84,1.49 -18.48,0.81 -16.12,0.14 -14.28,-0.13 -12.45,-0.40 -9.63,-1.11 -6.81,-1.81 -5.36,-2.03 -3.90,-2.25 -3.63,-2.26 -3.35,-2.27 -3.08,-2.22 -2.81,-2.16 -2.56,-2.04 -2.32,-1.93 -2.10,-1.75 -1.89,-1.58 -1.72,-1.36 -1.56,-1.14 -1.45,-0.88 -1.34,-0.63 -1.30,-0.36 -1.26,-0.08 -1.28,0.18 -1.30,0.46 -1.39,0.72 -1.48,0.98 -1.63,1.21 -1.77,1.44 -1.97,1.64 -2.17,1.83 -2.41,1.96 -2.65,2.10 -2.91,2.18 -3.18,2.25 -3.18,2.25 L -3.18,2.25 Z"></path></g><g transform="translate(16.686429919405782 66.42367145923481) rotate(0 43.04786539984889 2.8698576933230697)" stroke="none"><path fill="#f0f0f0" d="M 0.63,-1.42 Q 0.63,-1.42 4.61,0.39 8.58,2.21 11.29,3.10 14.00,3.99 17.62,4.93 21.23,5.86 25.34,6.53 29.45,7.20 33.52,7.63 37.58,8.06 41.61,8.10 45.63,8.15 49.35,7.76 53.07,7.38 56.32,6.94 59.56,6.50 62.24,5.78 64.92,5.07 67.82,3.95 70.71,2.83 72.49,2.05 74.27,1.27 76.20,0.17 78.14,-0.92 79.64,-1.88 81.14,-2.83 82.97,-4.09 84.79,-5.36 85.02,-5.47 85.26,-5.59 85.52,-5.62 85.78,-5.65 86.03,-5.60 86.29,-5.55 86.52,-5.42 86.74,-5.29 86.92,-5.09 87.09,-4.90 87.19,-4.66 87.29,-4.41 87.31,-4.15 87.33,-3.89 87.27,-3.64 87.20,-3.39 87.06,-3.17 86.91,-2.95 86.71,-2.78 86.50,-2.62 86.26,-2.53 86.01,-2.45 85.75,-2.44 85.49,-2.44 85.24,-2.52 84.99,-2.59 84.78,-2.75 84.57,-2.90 84.41,-3.12 84.26,-3.33 84.19,-3.58 84.11,-3.83 84.12,-4.09 84.13,-4.36 84.23,-4.60 84.32,-4.85 84.48,-5.05 84.65,-5.25 84.87,-5.39 85.09,-5.53 85.35,-5.59 85.60,-5.65 85.86,-5.63 86.12,-5.60 86.36,-5.50 86.60,-5.39 86.80,-5.22 86.99,-5.04 87.12,-4.81 87.24,-4.58 87.29,-4.33 87.34,-4.07 87.30,-3.81 87.26,-3.55 87.14,-3.32 87.03,-3.08 86.84,-2.90 86.65,-2.72 86.65,-2.72 86.65,-2.72 84.65,-1.48 82.66,-0.24 81.08,0.60 79.50,1.45 77.42,2.64 75.35,3.84 73.51,4.57 71.66,5.31 68.64,6.47 65.61,7.63 62.77,8.39 59.92,9.14 56.64,9.59 53.35,10.04 49.48,10.45 45.60,10.85 41.45,10.81 37.31,10.77 33.16,10.35 29.01,9.93 24.77,9.26 20.54,8.59 16.83,7.67 13.12,6.74 10.24,5.84 7.36,4.93 3.36,3.18 -0.63,1.42 -0.80,1.32 -0.96,1.23 -1.09,1.09 -1.22,0.96 -1.32,0.80 -1.42,0.64 -1.47,0.46 -1.53,0.28 -1.54,0.09 -1.55,-0.09 -1.52,-0.27 -1.49,-0.46 -1.41,-0.63 -1.33,-0.80 -1.22,-0.95 -1.10,-1.10 -0.95,-1.21 -0.81,-1.33 -0.63,-1.41 -0.46,-1.49 -0.28,-1.52 -0.09,-1.55 0.09,-1.54 0.27,-1.53 0.45,-1.48 0.63,-1.42 0.63,-1.42 L 0.63,-1.42 Z"></path></g><g transform="translate(17.69824624775356 48.21097754885113) rotate(0 43.04786539984889 2.8698576933230697)" stroke="none"><path fill="#f0f0f0" d="M 0.63,-1.42 Q 0.63,-1.42 4.61,0.39 8.58,2.21 11.29,3.10 14.00,3.99 17.62,4.93 21.23,5.86 25.34,6.53 29.45,7.20 33.52,7.63 37.58,8.06 41.61,8.10 45.63,8.15 49.35,7.76 53.07,7.38 56.32,6.94 59.56,6.50 62.24,5.78 64.92,5.07 67.82,3.95 70.71,2.83 72.49,2.05 74.27,1.27 76.20,0.17 78.14,-0.92 79.64,-1.88 81.14,-2.83 82.97,-4.09 84.79,-5.36 85.02,-5.47 85.26,-5.59 85.52,-5.62 85.78,-5.65 86.03,-5.60 86.29,-5.55 86.52,-5.42 86.74,-5.29 86.92,-5.09 87.09,-4.90 87.19,-4.66 87.29,-4.41 87.31,-4.15 87.33,-3.89 87.27,-3.64 87.20,-3.39 87.06,-3.17 86.91,-2.95 86.71,-2.78 86.50,-2.62 86.26,-2.53 86.01,-2.45 85.75,-2.44 85.49,-2.44 85.24,-2.52 84.99,-2.59 84.78,-2.75 84.57,-2.90 84.41,-3.12 84.26,-3.33 84.19,-3.58 84.11,-3.83 84.12,-4.09 84.13,-4.36 84.23,-4.60 84.32,-4.85 84.48,-5.05 84.65,-5.25 84.87,-5.39 85.09,-5.53 85.35,-5.59 85.60,-5.65 85.86,-5.63 86.12,-5.60 86.36,-5.50 86.60,-5.39 86.80,-5.22 86.99,-5.04 87.12,-4.81 87.24,-4.58 87.29,-4.33 87.34,-4.07 87.30,-3.81 87.26,-3.55 87.14,-3.32 87.03,-3.08 86.84,-2.90 86.65,-2.72 86.65,-2.72 86.65,-2.72 84.65,-1.48 82.66,-0.24 81.08,0.60 79.50,1.45 77.42,2.64 75.35,3.84 73.51,4.57 71.66,5.31 68.64,6.47 65.61,7.63 62.77,8.39 59.92,9.14 56.64,9.59 53.35,10.04 49.48,10.45 45.60,10.85 41.45,10.81 37.31,10.77 33.16,10.35 29.01,9.93 24.77,9.26 20.54,8.59 16.83,7.67 13.12,6.74 10.24,5.84 7.36,4.93 3.36,3.18 -0.63,1.42 -0.80,1.32 -0.96,1.23 -1.09,1.09 -1.22,0.96 -1.32,0.80 -1.42,0.64 -1.47,0.46 -1.53,0.28 -1.54,0.09 -1.55,-0.09 -1.52,-0.27 -1.49,-0.46 -1.41,-0.63 -1.33,-0.80 -1.22,-0.95 -1.10,-1.10 -0.95,-1.21 -0.81,-1.33 -0.63,-1.41 -0.46,-1.49 -0.28,-1.52 -0.09,-1.55 0.09,-1.54 0.27,-1.53 0.45,-1.48 0.63,-1.42 0.63,-1.42 L 0.63,-1.42 Z"></path></g><g transform="translate(126.17690088120435 46.35902570985263) rotate(0 0.00005000000055588316 0.00005000000000165983)" stroke="none"><path fill="#f0f0f0" d="M 1.57,-1.57 Q 1.57,-1.57 1.77,-1.27 1.98,-0.98 2.09,-0.64 2.20,-0.29 2.19,0.05 2.18,0.41 2.05,0.75 1.93,1.09 1.70,1.37 1.48,1.65 1.18,1.84 0.87,2.04 0.52,2.12 0.18,2.21 -0.17,2.18 -0.53,2.15 -0.86,2.01 -1.19,1.87 -1.46,1.63 -1.73,1.39 -1.90,1.07 -2.08,0.76 -2.15,0.41 -2.21,0.05 -2.17,-0.29 -2.12,-0.65 -1.96,-0.97 -1.80,-1.29 -1.54,-1.54 -1.29,-1.80 -0.97,-1.96 -0.65,-2.12 -0.29,-2.17 0.06,-2.21 0.41,-2.15 0.76,-2.08 1.07,-1.90 1.39,-1.73 1.63,-1.46 1.87,-1.19 2.01,-0.86 2.15,-0.53 2.18,-0.17 2.21,0.18 2.12,0.52 2.03,0.87 1.84,1.18 1.65,1.48 1.37,1.70 1.09,1.93 0.75,2.05 0.41,2.18 0.05,2.19 -0.30,2.20 -0.64,2.09 -0.98,1.98 -1.27,1.77 -1.57,1.56 -1.57,1.57 -1.57,1.57 -1.73,1.35 -1.90,1.14 -2.01,0.90 -2.12,0.66 -2.16,0.39 -2.21,0.13 -2.20,-0.13 -2.18,-0.40 -2.10,-0.65 -2.02,-0.91 -1.88,-1.14 -1.74,-1.36 -1.55,-1.55 -1.36,-1.74 -1.14,-1.88 -0.91,-2.02 -0.65,-2.10 -0.40,-2.18 -0.13,-2.20 0.13,-2.21 0.39,-2.16 0.66,-2.12 0.90,-2.01 1.14,-1.90 1.35,-1.73 1.57,-1.57 1.57,-1.57 L 1.57,-1.57 Z"></path></g><g transform="translate(99.13117288104695 84.05387735070053) rotate(1.3320474538076448 7.477131356294194 8.817979034122787)" stroke="none"><path fill="#f0f0f0" d="M 1.92,-1.03 Q 1.92,-1.03 2.50,0.93 3.08,2.89 3.84,4.72 4.59,6.54 5.44,8.50 6.30,10.45 7.13,12.47 7.95,14.48 8.79,16.17 9.62,17.85 10.40,19.36 11.18,20.86 11.80,22.04 12.43,23.22 12.51,23.31 12.59,23.39 12.64,23.63 12.68,23.88 12.67,24.12 12.66,24.37 12.59,24.61 12.52,24.84 12.40,25.06 12.27,25.27 12.10,25.45 11.93,25.62 11.72,25.75 11.51,25.89 11.27,25.96 11.04,26.04 10.79,26.06 10.55,26.08 10.30,26.04 10.06,25.99 9.83,25.90 9.61,25.80 9.41,25.65 9.21,25.50 9.06,25.31 8.90,25.11 8.80,24.89 8.69,24.67 8.84,23.20 9.00,21.73 9.54,19.78 10.08,17.84 10.54,16.51 11.00,15.18 11.36,13.83 11.72,12.48 11.96,11.09 12.21,9.71 12.17,8.18 12.13,6.64 11.87,5.06 11.61,3.48 11.16,1.88 10.72,0.29 10.21,-0.97 9.71,-2.23 9.59,-3.26 9.48,-4.28 9.12,-4.35 8.77,-4.42 8.45,-4.59 8.14,-4.77 7.90,-5.04 7.66,-5.31 7.52,-5.64 7.37,-5.98 7.34,-6.34 7.32,-6.70 7.40,-7.05 7.49,-7.40 7.69,-7.70 7.88,-8.01 8.16,-8.23 8.44,-8.46 8.78,-8.58 9.12,-8.71 9.49,-8.72 9.85,-8.73 10.19,-8.62 10.54,-8.51 10.83,-8.30 11.12,-8.09 11.33,-7.80 11.55,-7.50 11.65,-7.16 11.76,-6.81 11.75,-6.45 11.74,-6.09 11.61,-5.75 11.49,-5.41 11.26,-5.13 11.03,-4.85 10.73,-4.65 10.42,-4.46 10.07,-4.37 9.72,-4.28 9.36,-4.31 9.00,-4.34 8.67,-4.49 8.34,-4.63 8.07,-4.87 7.80,-5.11 7.62,-5.43 7.44,-5.74 7.38,-6.10 7.31,-6.45 7.36,-6.81 7.41,-7.17 7.57,-7.49 7.73,-7.82 7.99,-8.07 8.24,-8.33 8.57,-8.49 8.89,-8.65 9.25,-8.70 9.61,-8.75 9.61,-8.75 9.61,-8.75 11.73,-6.25 13.85,-3.76 14.34,-2.34 14.83,-0.93 15.40,0.88 15.96,2.69 16.33,4.56 16.70,6.44 16.81,8.47 16.93,10.50 16.65,12.11 16.38,13.72 15.97,15.26 15.56,16.80 15.07,18.13 14.59,19.45 13.59,21.42 12.59,23.39 12.64,23.63 12.68,23.88 12.67,24.12 12.66,24.37 12.59,24.61 12.52,24.84 12.40,25.06 12.27,25.27 12.10,25.45 11.93,25.62 11.72,25.75 11.51,25.89 11.27,25.96 11.04,26.04 10.79,26.06 10.55,26.08 10.30,26.04 10.06,25.99 9.83,25.90 9.61,25.80 9.41,25.65 9.21,25.50 9.06,25.31 8.90,25.11 8.80,24.89 8.69,24.67 8.66,24.59 8.62,24.51 8.37,23.41 8.12,22.32 7.44,20.77 6.77,19.23 5.94,17.47 5.11,15.72 4.22,13.78 3.33,11.85 2.35,9.91 1.37,7.97 0.45,6.03 -0.47,4.09 -1.19,2.17 -1.92,0.26 -1.97,0.02 -2.01,-0.21 -2.01,-0.45 -2.00,-0.70 -1.93,-0.93 -1.86,-1.17 -1.74,-1.38 -1.62,-1.59 -1.45,-1.77 -1.28,-1.95 -1.08,-2.08 -0.87,-2.21 -0.64,-2.29 -0.41,-2.36 -0.16,-2.38 0.07,-2.41 0.31,-2.37 0.55,-2.33 0.78,-2.23 1.00,-2.14 1.20,-1.99 1.39,-1.85 1.55,-1.66 1.70,-1.47 1.81,-1.25 1.92,-1.03 1.92,-1.03 L 1.92,-1.03 Z"></path></g></svg>